<svg width="142" height="162" viewBox="0 0 142 162" fill="none" xmlns="http://www.w3.org/2000/svg">
<circle cx="71" cy="81.0001" r="65" fill="#06F8BB"/>
<ellipse cx="71.5" cy="85.5" rx="41.5" ry="39.5" fill="#00030B"/>
<path d="M57.0941 70.1199C53.5114 70.1199 50.6816 73.6761 50.6816 78.1003C50.6816 82.5246 53.5738 86.0808 57.0941 86.0808C60.6768 86.0808 63.5066 82.5276 63.5066 78.1003C63.5715 73.6671 60.6768 70.1199 57.0941 70.1199Z" fill="#06F8BB"/>
<path d="M116.545 72.8648C112.711 99.1308 118.426 56.0467 116.001 53.2625C116.001 86.1974 112.493 76.3823 116.545 56.0919L99.4458 39.8441L81.8412 32L29.6627 35.7198C29.6627 56.2605 22.2136 78.8694 18 52.3885C18 77.889 18 98.391 23.5008 72.8648L18 106.948L29.6627 123.188C29.6627 131.388 47.5824 132.631 54.6855 132.631H89.3234H97.2027L112.001 127.774L124.5 105.72L116.545 72.8648ZM89.3234 112.751C89.3234 112.751 87.0595 109.63 85.1695 106.948C93.4097 104.263 96.5536 98.391 96.5536 98.391C94.2904 100.128 91.865 101.564 89.3234 102.671C86.3888 104.081 83.3334 105.127 80.2083 105.792C74.8237 106.936 69.3021 106.912 63.9252 105.72C60.7624 105.04 57.6669 103.994 54.6855 102.596C53.1083 101.897 51.5747 101.073 50.0955 100.13C49.906 99.9858 49.7191 99.9137 49.5295 99.7666C49.4023 99.6945 49.34 99.6224 49.2699 99.6224C48.138 98.8956 47.5097 98.3879 47.5097 98.3879C47.5097 98.3879 50.5265 104.122 58.5122 106.876C56.6248 109.633 54.2987 112.826 54.2987 112.826C40.4067 112.318 35.1261 101.872 35.1261 101.872C35.1261 78.7267 44.1789 59.9364 44.1789 59.9364C53.2317 52.1722 61.7808 52.3915 61.7808 52.3915L62.4091 53.2625C51.0924 56.9629 45.9391 62.6937 45.9391 62.6937C45.9391 62.6937 47.3202 61.8227 49.6464 60.6603C56.373 57.2512 61.7185 56.3802 63.9252 56.0919C64.2774 56.0072 64.6353 55.958 64.9948 55.9447C69.2074 55.3123 73.4701 55.2639 77.6926 55.8005C84.3226 56.6816 90.7457 59.0214 96.616 62.6937C96.616 62.6937 91.6495 57.2422 80.9612 53.5479L81.8412 52.3885C81.8412 52.3885 90.4527 52.1692 99.4458 59.9454C99.4458 59.9454 108.499 78.7357 108.499 101.881C108.499 101.797 103.215 112.243 89.3234 112.751Z" fill="#06F8BB"/>
<path d="M80.0387 70.1199C76.456 70.1199 73.6262 73.6761 73.6262 78.1003C73.6262 82.5246 76.5183 86.0808 80.0387 86.0808C83.624 86.0808 86.4512 82.5276 86.4512 78.1003C86.4512 73.6731 83.5617 70.1199 80.0387 70.1199Z" fill="#06F8BB"/>
</svg>
