<svg width="130" height="130" viewBox="0 0 130 130" fill="none" xmlns="http://www.w3.org/2000/svg">
<path d="M60.7171 78.9112C56.2716 75.9049 51.797 72.9422 47.3515 69.9359C46.7712 69.5355 46.3562 69.5065 45.7555 69.9359L34.4734 77.5154C43.527 83.5424 61.518 95.5616 61.518 95.5616V79.9529C61.518 79.5989 61.0683 79.1462 60.7171 78.9112Z" fill="#06F8BB"/>
<path d="M47.3252 60.5515C51.8114 57.6033 56.2714 54.6183 60.7054 51.5966C60.9401 51.4081 61.1334 51.1732 61.2732 50.9066C61.413 50.6399 61.4963 50.3473 61.5179 50.047V35.0448C61.5179 35.0448 43.5268 46.9769 34.4558 53.0185C38.4313 55.6765 42.1949 58.2156 45.9991 60.6908C46.2951 60.8823 46.9857 60.772 47.3252 60.5515Z" fill="#06F8BB"/>
<path d="M69.0161 51.4631C73.6029 54.5719 78.2099 57.6498 82.8373 60.6966C83.01 60.7825 83.2002 60.8272 83.393 60.8272C83.5858 60.8272 83.776 60.7825 83.9487 60.6966L95.4862 53.0156L68.4822 34.9607V50.4417C68.4929 50.6403 68.5462 50.8342 68.6383 51.0104C68.7304 51.1866 68.8592 51.341 69.0161 51.4631Z" fill="#06F8BB"/>
<path d="M65.6121 57.5627C65.3949 57.4629 65.1574 57.4153 64.9185 57.4239C64.6796 57.4325 64.4461 57.4969 64.2367 57.612C62.838 58.4826 61.4887 59.4111 60.1248 60.3252C57.7308 61.9299 52.7688 65.2583 52.7688 65.2583L64.0393 72.7623C64.3118 72.9289 64.6239 73.0197 64.9433 73.0253C65.2626 73.0309 65.5777 72.9511 65.8559 72.7942L77.1728 65.2495C77.1728 65.2495 67.2864 58.6741 65.6121 57.5627Z" fill="#06F8BB"/>
<path d="M31.6296 59.5214V71.0154L40.2247 65.2583L31.6296 59.5214Z" fill="#06F8BB"/>
<path d="M65 0C29.102 0 0 29.102 0 65C0 100.898 29.102 130 65 130C100.898 130 130 100.898 130 65C130 29.102 100.898 0 65 0ZM105.335 76.8973C105.335 78.5746 104.566 79.7585 103.156 80.6958C91.2176 88.6273 79.2923 96.5772 67.3795 104.546C65.6819 105.683 64.1382 105.634 62.4464 104.505C50.6129 96.5734 38.7514 88.6737 26.8618 80.806C25.379 79.8223 24.6594 78.6123 24.6594 76.8219V53.683C24.6594 51.9013 25.3906 50.6826 26.8705 49.7018C38.7417 41.8292 50.6478 33.9277 62.4842 26C64.173 24.8712 65.7022 24.8393 67.3998 25.9739C79.3048 33.9461 91.2273 41.896 103.167 49.8237C104.525 50.7261 105.329 51.8404 105.329 53.4973L105.335 76.8973Z" fill="#06F8BB"/>
<path d="M82.4834 69.9998C78.1133 72.9673 73.7229 75.902 69.3122 78.8038C68.6129 79.2623 68.4736 79.7643 68.4823 80.6V95.4978L95.4689 77.5067L84.2883 69.9969C83.6209 69.5297 83.1595 69.5413 82.4834 69.9998Z" fill="#06F8BB"/>
<path d="M98.0803 71.0008V59.504L89.4939 65.2698L98.0803 71.0008Z" fill="#06F8BB"/>
</svg>
