<svg width="130" height="130" viewBox="0 0 130 130" fill="none" xmlns="http://www.w3.org/2000/svg">
<path d="M65 0C29.1049 0 0 29.8594 0 66.654C0 96.1071 18.6295 121.063 44.4554 129.884C44.8176 129.963 45.1873 130.002 45.558 130C47.9665 130 48.8951 128.23 48.8951 126.692C48.8951 125.096 48.8371 120.917 48.808 115.346C46.6579 115.85 44.4583 116.113 42.25 116.129C29.7433 116.129 26.8996 106.408 26.8996 106.408C23.9397 98.7188 19.6741 96.6585 19.6741 96.6585C14.0156 92.683 19.6451 92.567 20.0804 92.567H20.1094C26.6384 93.1473 30.0625 99.4732 30.0625 99.4732C33.3125 105.161 37.6652 106.757 41.5536 106.757C44.1247 106.705 46.656 106.112 48.9821 105.016C49.5625 100.721 51.2455 97.7902 53.1027 96.1071C38.6808 94.4241 23.5045 88.7076 23.5045 63.1719C23.5045 55.8884 26.029 49.9397 30.1786 45.2969C29.5112 43.6138 27.2768 36.8237 30.817 27.654C31.2918 27.5404 31.7799 27.4916 32.2679 27.5089C34.6183 27.5089 39.9286 28.4085 48.692 34.5022C59.3402 31.523 70.6018 31.523 81.25 34.5022C90.0134 28.4085 95.3237 27.5089 97.6741 27.5089C98.1621 27.4916 98.6501 27.5404 99.125 27.654C102.665 36.8237 100.431 43.6138 99.7634 45.2969C103.913 49.9688 106.437 55.9174 106.437 63.1719C106.437 88.7656 91.2321 94.3951 76.7522 96.0491C79.0737 98.1094 81.1629 102.172 81.1629 108.382C81.1629 117.29 81.0759 124.487 81.0759 126.663C81.0759 128.23 81.9754 130 84.3839 130C84.7738 130.002 85.1628 129.963 85.5446 129.884C111.4 121.063 130 96.0781 130 66.654C130 29.8594 100.895 0 65 0Z" fill="#06F8BB"/>
</svg>
