<svg width="130" height="130" viewBox="0 0 130 130" fill="none" xmlns="http://www.w3.org/2000/svg">
<path d="M90.5647 58.5C82.1785 58.5 81.0178 66.8571 81.0178 66.8571H98.8348C98.8348 66.8571 98.9509 58.5 90.5647 58.5Z" fill="#06F8BB"/>
<path d="M50.1429 66.8572H34.3572V81.3661H49.3594C51.6228 81.3081 55.8594 80.6697 55.8594 74.3148C55.8594 66.7701 50.1429 66.8572 50.1429 66.8572Z" fill="#06F8BB"/>
<path d="M65 0C29.1049 0 0 29.1049 0 65C0 100.895 29.1049 130 65 130C100.895 130 130 100.895 130 65C130 29.1049 100.895 0 65 0ZM78.6964 39.9286H101.069V46.6027H78.6964V39.9286ZM67.3795 74.9821C67.3795 91.5223 50.1429 91 50.1429 91H21.9375V36.7366H50.1429C58.7321 36.7366 65.4933 41.4665 65.4933 51.1875C65.4933 60.9085 57.2232 61.5179 57.2232 61.5179C68.1339 61.5179 67.3795 74.9821 67.3795 74.9821ZM109.223 74.0826H81.1049C81.1049 84.1518 90.6518 83.5134 90.6518 83.5134C99.6763 83.5134 99.3571 77.6808 99.3571 77.6808H108.904C108.904 93.1763 90.3326 92.1027 90.3326 92.1027C68.0759 92.1027 69.4978 71.3549 69.4978 71.3549C69.4978 71.3549 69.4687 50.5201 90.3326 50.5201C112.299 50.5491 109.223 74.0826 109.223 74.0826Z" fill="#06F8BB"/>
<path d="M53.9733 52.0289C53.9733 46.3995 50.1429 46.3995 50.1429 46.3995H34.3572V58.4999H49.1563C51.7099 58.4999 53.9733 57.6584 53.9733 52.0289Z" fill="#06F8BB"/>
</svg>
