<svg width="130" height="130" viewBox="0 0 130 130" fill="none" xmlns="http://www.w3.org/2000/svg">
<circle cx="65" cy="65.0001" r="65" fill="#06F8BB"/>
<ellipse cx="63" cy="65.0001" rx="47" ry="42" fill="#00030B"/>
<path d="M106.162 19.0001H24.3737C19.9047 19.0001 16 22.0189 16 26.165V103.116C16 107.285 19.9047 111 24.3737 111H106.138C110.631 111 114 107.261 114 103.116V26.165C114.026 22.0189 110.631 19.0001 106.162 19.0001ZM46.3778 88.667C46.3778 92.5438 43.2349 95.6866 39.3581 95.6866V95.6866C35.4812 95.6866 32.3384 92.5438 32.3384 88.667V61.7273C32.3384 57.8504 35.4812 54.7076 39.3581 54.7076V54.7076C43.2349 54.7076 46.3778 57.8504 46.3778 61.7273V88.667ZM39.8437 48.4771H39.7431C35.25 48.4771 32.3406 45.3372 32.3406 41.4066C32.3406 37.4042 35.3265 34.3382 39.9203 34.3382C44.514 34.3382 47.325 37.3816 47.4256 41.4066C47.4234 45.3372 44.514 48.4771 39.8437 48.4771ZM97.6883 88.6673C97.688 92.5441 94.5451 95.6866 90.6683 95.6866V95.6866C86.7913 95.6866 83.6483 92.5437 83.6483 88.6666V73.2801C83.6483 67.9121 81.6052 64.2444 76.5258 64.2444C72.6452 64.2444 70.3484 66.7087 69.3268 69.1093C68.944 69.9718 68.8412 71.1465 68.8412 72.3457V88.667C68.8412 92.5438 65.6983 95.6866 61.8215 95.6866V95.6866C57.9446 95.6866 54.8018 92.5438 54.8018 88.667V61.7273C54.8018 57.8504 57.9446 54.7076 61.8215 54.7076H67.4177C68.2039 54.7076 68.8412 55.3449 68.8412 56.1311V56.1311C68.8412 57.5 70.645 58.1189 71.6669 57.2081C73.7586 55.3439 76.7711 53.7486 81.5024 53.7486C90.7183 53.7486 97.6899 59.4514 97.6899 71.7461L97.6883 88.6673Z" fill="#06F8BB"/>
</svg>
